<mxfile host="app.diagrams.net" modified="2022-03-06T11:46:55.852Z" agent="5.0 (Windows NT 10.0; Win64; x64) AppleWebKit/537.36 (KHTML, like Gecko) Chrome/99.0.4844.51 Safari/537.36" etag="0PoEHYuRB-jz7aKFeP4w" version="16.6.6" type="github">
  <diagram id="kgpKYQtTHZ0yAKxKKP6v" name="Page-1">
    <mxGraphModel dx="868" dy="482" grid="1" gridSize="10" guides="1" tooltips="1" connect="1" arrows="1" fold="1" page="1" pageScale="1" pageWidth="850" pageHeight="1100" math="0" shadow="0">
      <root>
        <mxCell id="0" />
        <mxCell id="1" parent="0" />
        <mxCell id="3nuBFxr9cyL0pnOWT2aG-1" value="Data Pipeline for BU and C-Level" style="shape=table;childLayout=tableLayout;startSize=40;collapsible=0;recursiveResize=0;expand=0;fillColor=none;fontStyle=1" parent="1" vertex="1">
          <mxGeometry x="10" y="10" width="830" height="431" as="geometry" />
        </mxCell>
        <mxCell id="3nuBFxr9cyL0pnOWT2aG-3" value="BU Data" style="shape=tableRow;horizontal=0;swimlaneHead=0;swimlaneBody=0;top=0;left=0;bottom=0;right=0;fillColor=none;points=[[0,0.5],[1,0.5]];portConstraint=eastwest;startSize=40;collapsible=0;recursiveResize=0;expand=0;fontStyle=1;" parent="3nuBFxr9cyL0pnOWT2aG-1" vertex="1">
          <mxGeometry y="40" width="830" height="270" as="geometry" />
        </mxCell>
        <mxCell id="3nuBFxr9cyL0pnOWT2aG-4" value="DataÂ  Source" style="swimlane;swimlaneHead=0;swimlaneBody=0;connectable=0;fillColor=none;startSize=40;collapsible=0;recursiveResize=0;expand=0;fontStyle=1;" parent="3nuBFxr9cyL0pnOWT2aG-3" vertex="1">
          <mxGeometry x="40" width="163" height="270" as="geometry">
            <mxRectangle width="163" height="270" as="alternateBounds" />
          </mxGeometry>
        </mxCell>
        <mxCell id="WkIbvtxm1rjPPCoazpS5-1" value="BU-A" style="shape=cylinder3;whiteSpace=wrap;html=1;boundedLbl=1;backgroundOutline=1;size=15;" parent="3nuBFxr9cyL0pnOWT2aG-4" vertex="1">
          <mxGeometry x="56.5" y="40" width="50" height="70" as="geometry" />
        </mxCell>
        <mxCell id="WkIbvtxm1rjPPCoazpS5-3" value="BU-C" style="shape=cylinder3;whiteSpace=wrap;html=1;boundedLbl=1;backgroundOutline=1;size=15;" parent="3nuBFxr9cyL0pnOWT2aG-4" vertex="1">
          <mxGeometry x="56.5" y="199" width="50" height="70" as="geometry" />
        </mxCell>
        <mxCell id="WkIbvtxm1rjPPCoazpS5-2" value="BU-B" style="shape=cylinder3;whiteSpace=wrap;html=1;boundedLbl=1;backgroundOutline=1;size=15;" parent="3nuBFxr9cyL0pnOWT2aG-4" vertex="1">
          <mxGeometry x="56.5" y="120" width="50" height="70" as="geometry" />
        </mxCell>
        <mxCell id="3nuBFxr9cyL0pnOWT2aG-8" value="Data Warehouse" style="swimlane;swimlaneHead=0;swimlaneBody=0;connectable=0;fillColor=none;startSize=40;collapsible=0;recursiveResize=0;expand=0;fontStyle=1;" parent="3nuBFxr9cyL0pnOWT2aG-3" vertex="1">
          <mxGeometry x="203" width="464" height="270" as="geometry">
            <mxRectangle width="464" height="270" as="alternateBounds" />
          </mxGeometry>
        </mxCell>
        <mxCell id="WkIbvtxm1rjPPCoazpS5-15" value="Table Order BU-A" style="swimlane;fontStyle=0;childLayout=stackLayout;horizontal=1;startSize=30;horizontalStack=0;resizeParent=1;resizeParentMax=0;resizeLast=0;collapsible=1;marginBottom=0;" parent="3nuBFxr9cyL0pnOWT2aG-8" vertex="1">
          <mxGeometry x="7" y="50" width="113" height="60" as="geometry" />
        </mxCell>
        <mxCell id="WkIbvtxm1rjPPCoazpS5-16" value="Data Order BU-A" style="text;strokeColor=none;fillColor=none;align=left;verticalAlign=middle;spacingLeft=4;spacingRight=4;overflow=hidden;points=[[0,0.5],[1,0.5]];portConstraint=eastwest;rotatable=0;" parent="WkIbvtxm1rjPPCoazpS5-15" vertex="1">
          <mxGeometry y="30" width="113" height="30" as="geometry" />
        </mxCell>
        <mxCell id="WkIbvtxm1rjPPCoazpS5-21" value="Table Order BU-C" style="swimlane;fontStyle=0;childLayout=stackLayout;horizontal=1;startSize=30;horizontalStack=0;resizeParent=1;resizeParentMax=0;resizeLast=0;collapsible=1;marginBottom=0;" parent="3nuBFxr9cyL0pnOWT2aG-8" vertex="1">
          <mxGeometry x="7" y="190" width="113" height="60" as="geometry" />
        </mxCell>
        <mxCell id="WkIbvtxm1rjPPCoazpS5-22" value="Data Order BU-C" style="text;strokeColor=none;fillColor=none;align=left;verticalAlign=middle;spacingLeft=4;spacingRight=4;overflow=hidden;points=[[0,0.5],[1,0.5]];portConstraint=eastwest;rotatable=0;" parent="WkIbvtxm1rjPPCoazpS5-21" vertex="1">
          <mxGeometry y="30" width="113" height="30" as="geometry" />
        </mxCell>
        <mxCell id="WkIbvtxm1rjPPCoazpS5-19" value="Table Order BU-B" style="swimlane;fontStyle=0;childLayout=stackLayout;horizontal=1;startSize=30;horizontalStack=0;resizeParent=1;resizeParentMax=0;resizeLast=0;collapsible=1;marginBottom=0;" parent="3nuBFxr9cyL0pnOWT2aG-8" vertex="1">
          <mxGeometry x="7" y="120" width="113" height="60" as="geometry" />
        </mxCell>
        <mxCell id="WkIbvtxm1rjPPCoazpS5-20" value="Data Order BU-B" style="text;strokeColor=none;fillColor=none;align=left;verticalAlign=middle;spacingLeft=4;spacingRight=4;overflow=hidden;points=[[0,0.5],[1,0.5]];portConstraint=eastwest;rotatable=0;" parent="WkIbvtxm1rjPPCoazpS5-19" vertex="1">
          <mxGeometry y="30" width="113" height="30" as="geometry" />
        </mxCell>
        <mxCell id="WkIbvtxm1rjPPCoazpS5-23" value="Table Customers" style="swimlane;fontStyle=0;childLayout=stackLayout;horizontal=1;startSize=30;horizontalStack=0;resizeParent=1;resizeParentMax=0;resizeLast=0;collapsible=1;marginBottom=0;" parent="3nuBFxr9cyL0pnOWT2aG-8" vertex="1">
          <mxGeometry x="175.5" y="120" width="113" height="60" as="geometry" />
        </mxCell>
        <mxCell id="WkIbvtxm1rjPPCoazpS5-24" value="Customer Data" style="text;strokeColor=none;fillColor=none;align=left;verticalAlign=middle;spacingLeft=4;spacingRight=4;overflow=hidden;points=[[0,0.5],[1,0.5]];portConstraint=eastwest;rotatable=0;" parent="WkIbvtxm1rjPPCoazpS5-23" vertex="1">
          <mxGeometry y="30" width="113" height="30" as="geometry" />
        </mxCell>
        <mxCell id="WkIbvtxm1rjPPCoazpS5-27" value="Table Invoice &#xa;&amp; Payments" style="swimlane;fontStyle=0;childLayout=stackLayout;horizontal=1;startSize=30;horizontalStack=0;resizeParent=1;resizeParentMax=0;resizeLast=0;collapsible=1;marginBottom=0;" parent="3nuBFxr9cyL0pnOWT2aG-8" vertex="1">
          <mxGeometry x="337" y="105" width="113" height="90" as="geometry" />
        </mxCell>
        <mxCell id="WkIbvtxm1rjPPCoazpS5-28" value="Invoice Data" style="text;strokeColor=none;fillColor=none;align=left;verticalAlign=middle;spacingLeft=4;spacingRight=4;overflow=hidden;points=[[0,0.5],[1,0.5]];portConstraint=eastwest;rotatable=0;" parent="WkIbvtxm1rjPPCoazpS5-27" vertex="1">
          <mxGeometry y="30" width="113" height="30" as="geometry" />
        </mxCell>
        <mxCell id="WkIbvtxm1rjPPCoazpS5-29" value="Payments Data" style="text;strokeColor=none;fillColor=none;align=left;verticalAlign=middle;spacingLeft=4;spacingRight=4;overflow=hidden;points=[[0,0.5],[1,0.5]];portConstraint=eastwest;rotatable=0;" parent="WkIbvtxm1rjPPCoazpS5-27" vertex="1">
          <mxGeometry y="60" width="113" height="30" as="geometry" />
        </mxCell>
        <mxCell id="WkIbvtxm1rjPPCoazpS5-31" value="" style="endArrow=classic;startArrow=classic;html=1;rounded=0;entryX=0;entryY=0;entryDx=0;entryDy=0;entryPerimeter=0;exitX=1;exitY=-0.067;exitDx=0;exitDy=0;exitPerimeter=0;" parent="3nuBFxr9cyL0pnOWT2aG-8" source="WkIbvtxm1rjPPCoazpS5-16" target="WkIbvtxm1rjPPCoazpS5-24" edge="1">
          <mxGeometry width="50" height="50" relative="1" as="geometry">
            <mxPoint x="117" y="120" as="sourcePoint" />
            <mxPoint x="167" y="70" as="targetPoint" />
          </mxGeometry>
        </mxCell>
        <mxCell id="WkIbvtxm1rjPPCoazpS5-34" value="" style="endArrow=classic;startArrow=classic;html=1;rounded=0;entryX=0;entryY=0.5;entryDx=0;entryDy=0;" parent="3nuBFxr9cyL0pnOWT2aG-8" target="WkIbvtxm1rjPPCoazpS5-28" edge="1">
          <mxGeometry width="50" height="50" relative="1" as="geometry">
            <mxPoint x="287" y="150" as="sourcePoint" />
            <mxPoint x="305" y="180" as="targetPoint" />
          </mxGeometry>
        </mxCell>
        <mxCell id="WkIbvtxm1rjPPCoazpS5-33" value="" style="endArrow=classic;startArrow=classic;html=1;rounded=0;entryX=0.013;entryY=-0.033;entryDx=0;entryDy=0;entryPerimeter=0;" parent="3nuBFxr9cyL0pnOWT2aG-8" target="WkIbvtxm1rjPPCoazpS5-24" edge="1">
          <mxGeometry width="50" height="50" relative="1" as="geometry">
            <mxPoint x="120" y="220" as="sourcePoint" />
            <mxPoint x="156" y="270" as="targetPoint" />
          </mxGeometry>
        </mxCell>
        <mxCell id="WkIbvtxm1rjPPCoazpS5-32" value="" style="endArrow=classic;startArrow=classic;html=1;rounded=0;exitX=0.991;exitY=0;exitDx=0;exitDy=0;exitPerimeter=0;" parent="3nuBFxr9cyL0pnOWT2aG-8" source="WkIbvtxm1rjPPCoazpS5-20" edge="1">
          <mxGeometry width="50" height="50" relative="1" as="geometry">
            <mxPoint x="120" y="137.99" as="sourcePoint" />
            <mxPoint x="177" y="150" as="targetPoint" />
          </mxGeometry>
        </mxCell>
        <mxCell id="3nuBFxr9cyL0pnOWT2aG-11" value="Data Output" style="swimlane;swimlaneHead=0;swimlaneBody=0;connectable=0;fillColor=none;startSize=40;collapsible=0;recursiveResize=0;expand=0;fontStyle=1;" parent="3nuBFxr9cyL0pnOWT2aG-3" vertex="1">
          <mxGeometry x="667" width="163" height="270" as="geometry">
            <mxRectangle width="163" height="270" as="alternateBounds" />
          </mxGeometry>
        </mxCell>
        <mxCell id="knuIaB83A8cWOpYtpz9W-23" value="Master Table BU-A" style="swimlane;fontStyle=0;childLayout=stackLayout;horizontal=1;startSize=30;horizontalStack=0;resizeParent=1;resizeParentMax=0;resizeLast=0;collapsible=1;marginBottom=0;" vertex="1" parent="3nuBFxr9cyL0pnOWT2aG-11">
          <mxGeometry x="25" y="45" width="113" height="60" as="geometry" />
        </mxCell>
        <mxCell id="knuIaB83A8cWOpYtpz9W-24" value="Master Data BU-A" style="text;strokeColor=none;fillColor=none;align=left;verticalAlign=middle;spacingLeft=4;spacingRight=4;overflow=hidden;points=[[0,0.5],[1,0.5]];portConstraint=eastwest;rotatable=0;" vertex="1" parent="knuIaB83A8cWOpYtpz9W-23">
          <mxGeometry y="30" width="113" height="30" as="geometry" />
        </mxCell>
        <mxCell id="knuIaB83A8cWOpYtpz9W-21" value="Master Table BU-B" style="swimlane;fontStyle=0;childLayout=stackLayout;horizontal=1;startSize=30;horizontalStack=0;resizeParent=1;resizeParentMax=0;resizeLast=0;collapsible=1;marginBottom=0;" vertex="1" parent="3nuBFxr9cyL0pnOWT2aG-11">
          <mxGeometry x="25" y="120" width="113" height="60" as="geometry" />
        </mxCell>
        <mxCell id="knuIaB83A8cWOpYtpz9W-22" value="Master Data BU-B" style="text;strokeColor=none;fillColor=none;align=left;verticalAlign=middle;spacingLeft=4;spacingRight=4;overflow=hidden;points=[[0,0.5],[1,0.5]];portConstraint=eastwest;rotatable=0;" vertex="1" parent="knuIaB83A8cWOpYtpz9W-21">
          <mxGeometry y="30" width="113" height="30" as="geometry" />
        </mxCell>
        <mxCell id="knuIaB83A8cWOpYtpz9W-19" value="Master TableÂ BU-C" style="swimlane;fontStyle=0;childLayout=stackLayout;horizontal=1;startSize=30;horizontalStack=0;resizeParent=1;resizeParentMax=0;resizeLast=0;collapsible=1;marginBottom=0;" vertex="1" parent="3nuBFxr9cyL0pnOWT2aG-11">
          <mxGeometry x="25" y="190" width="113" height="60" as="geometry" />
        </mxCell>
        <mxCell id="knuIaB83A8cWOpYtpz9W-20" value="Master Data BU-C" style="text;strokeColor=none;fillColor=none;align=left;verticalAlign=middle;spacingLeft=4;spacingRight=4;overflow=hidden;points=[[0,0.5],[1,0.5]];portConstraint=eastwest;rotatable=0;" vertex="1" parent="knuIaB83A8cWOpYtpz9W-19">
          <mxGeometry y="30" width="113" height="30" as="geometry" />
        </mxCell>
        <mxCell id="knuIaB83A8cWOpYtpz9W-26" value="" style="endArrow=classic;html=1;rounded=0;entryX=-0.009;entryY=0.2;entryDx=0;entryDy=0;entryPerimeter=0;" edge="1" parent="3nuBFxr9cyL0pnOWT2aG-11" target="knuIaB83A8cWOpYtpz9W-24">
          <mxGeometry width="50" height="50" relative="1" as="geometry">
            <mxPoint x="3" y="150" as="sourcePoint" />
            <mxPoint x="43" y="120" as="targetPoint" />
          </mxGeometry>
        </mxCell>
        <mxCell id="3nuBFxr9cyL0pnOWT2aG-15" value="Other Data" style="shape=tableRow;horizontal=0;swimlaneHead=0;swimlaneBody=0;top=0;left=0;bottom=0;right=0;fillColor=none;points=[[0,0.5],[1,0.5]];portConstraint=eastwest;startSize=40;collapsible=0;recursiveResize=0;expand=0;fontStyle=1;" parent="3nuBFxr9cyL0pnOWT2aG-1" vertex="1">
          <mxGeometry y="310" width="830" height="121" as="geometry" />
        </mxCell>
        <mxCell id="3nuBFxr9cyL0pnOWT2aG-16" value="" style="swimlane;swimlaneHead=0;swimlaneBody=0;connectable=0;fillColor=none;startSize=0;collapsible=0;recursiveResize=0;expand=0;fontStyle=1;" parent="3nuBFxr9cyL0pnOWT2aG-15" vertex="1">
          <mxGeometry x="40" width="163" height="121" as="geometry">
            <mxRectangle width="163" height="121" as="alternateBounds" />
          </mxGeometry>
        </mxCell>
        <mxCell id="WkIbvtxm1rjPPCoazpS5-5" value="Customer Data" style="shape=cylinder3;whiteSpace=wrap;html=1;boundedLbl=1;backgroundOutline=1;size=15;" parent="3nuBFxr9cyL0pnOWT2aG-16" vertex="1">
          <mxGeometry x="15" y="21" width="55" height="79" as="geometry" />
        </mxCell>
        <mxCell id="WkIbvtxm1rjPPCoazpS5-7" value="Invoice &amp;amp; Payments Data" style="shape=cylinder3;whiteSpace=wrap;html=1;boundedLbl=1;backgroundOutline=1;size=15;" parent="3nuBFxr9cyL0pnOWT2aG-16" vertex="1">
          <mxGeometry x="90" y="21" width="55" height="79" as="geometry" />
        </mxCell>
        <mxCell id="3nuBFxr9cyL0pnOWT2aG-18" value="" style="swimlane;swimlaneHead=0;swimlaneBody=0;connectable=0;fillColor=none;startSize=0;collapsible=0;recursiveResize=0;expand=0;fontStyle=1;" parent="3nuBFxr9cyL0pnOWT2aG-15" vertex="1">
          <mxGeometry x="203" width="464" height="121" as="geometry">
            <mxRectangle width="464" height="121" as="alternateBounds" />
          </mxGeometry>
        </mxCell>
        <mxCell id="3nuBFxr9cyL0pnOWT2aG-23" value="" style="swimlane;swimlaneHead=0;swimlaneBody=0;connectable=0;fillColor=none;startSize=0;collapsible=0;recursiveResize=0;expand=0;fontStyle=1;" parent="3nuBFxr9cyL0pnOWT2aG-15" vertex="1">
          <mxGeometry x="667" width="163" height="121" as="geometry">
            <mxRectangle width="163" height="121" as="alternateBounds" />
          </mxGeometry>
        </mxCell>
        <mxCell id="knuIaB83A8cWOpYtpz9W-17" value="Master Table C-LVL" style="swimlane;fontStyle=0;childLayout=stackLayout;horizontal=1;startSize=30;horizontalStack=0;resizeParent=1;resizeParentMax=0;resizeLast=0;collapsible=1;marginBottom=0;" vertex="1" parent="3nuBFxr9cyL0pnOWT2aG-23">
          <mxGeometry x="25" y="10" width="113" height="60" as="geometry" />
        </mxCell>
        <mxCell id="knuIaB83A8cWOpYtpz9W-18" value="Master Data C-LVL" style="text;strokeColor=none;fillColor=none;align=left;verticalAlign=middle;spacingLeft=4;spacingRight=4;overflow=hidden;points=[[0,0.5],[1,0.5]];portConstraint=eastwest;rotatable=0;" vertex="1" parent="knuIaB83A8cWOpYtpz9W-17">
          <mxGeometry y="30" width="113" height="30" as="geometry" />
        </mxCell>
        <mxCell id="WkIbvtxm1rjPPCoazpS5-8" style="edgeStyle=orthogonalEdgeStyle;rounded=0;orthogonalLoop=1;jettySize=auto;html=1;exitX=1;exitY=0.5;exitDx=0;exitDy=0;exitPerimeter=0;" parent="1" source="WkIbvtxm1rjPPCoazpS5-1" edge="1">
          <mxGeometry relative="1" as="geometry">
            <mxPoint x="210" y="200" as="targetPoint" />
          </mxGeometry>
        </mxCell>
        <mxCell id="WkIbvtxm1rjPPCoazpS5-9" style="edgeStyle=orthogonalEdgeStyle;rounded=0;orthogonalLoop=1;jettySize=auto;html=1;" parent="1" source="WkIbvtxm1rjPPCoazpS5-2" edge="1">
          <mxGeometry relative="1" as="geometry">
            <mxPoint x="210" y="205" as="targetPoint" />
          </mxGeometry>
        </mxCell>
        <mxCell id="WkIbvtxm1rjPPCoazpS5-10" style="edgeStyle=orthogonalEdgeStyle;rounded=0;orthogonalLoop=1;jettySize=auto;html=1;" parent="1" source="WkIbvtxm1rjPPCoazpS5-3" edge="1">
          <mxGeometry relative="1" as="geometry">
            <mxPoint x="210" y="210" as="targetPoint" />
          </mxGeometry>
        </mxCell>
        <mxCell id="WkIbvtxm1rjPPCoazpS5-13" style="edgeStyle=orthogonalEdgeStyle;rounded=0;orthogonalLoop=1;jettySize=auto;html=1;exitX=0.5;exitY=0;exitDx=0;exitDy=0;exitPerimeter=0;" parent="1" source="WkIbvtxm1rjPPCoazpS5-5" edge="1">
          <mxGeometry relative="1" as="geometry">
            <mxPoint x="210" y="240" as="targetPoint" />
            <Array as="points">
              <mxPoint x="93" y="240" />
            </Array>
          </mxGeometry>
        </mxCell>
        <mxCell id="WkIbvtxm1rjPPCoazpS5-14" style="edgeStyle=orthogonalEdgeStyle;rounded=0;orthogonalLoop=1;jettySize=auto;html=1;exitX=0.5;exitY=0;exitDx=0;exitDy=0;exitPerimeter=0;" parent="1" source="WkIbvtxm1rjPPCoazpS5-7" edge="1">
          <mxGeometry relative="1" as="geometry">
            <mxPoint x="210" y="260" as="targetPoint" />
            <Array as="points">
              <mxPoint x="168" y="260" />
            </Array>
          </mxGeometry>
        </mxCell>
        <mxCell id="knuIaB83A8cWOpYtpz9W-27" value="" style="endArrow=classic;html=1;rounded=0;" edge="1" parent="1">
          <mxGeometry width="50" height="50" relative="1" as="geometry">
            <mxPoint x="680" y="200" as="sourcePoint" />
            <mxPoint x="700" y="200" as="targetPoint" />
          </mxGeometry>
        </mxCell>
        <mxCell id="knuIaB83A8cWOpYtpz9W-28" value="" style="endArrow=classic;html=1;rounded=0;entryX=0;entryY=-0.133;entryDx=0;entryDy=0;entryPerimeter=0;" edge="1" parent="1" target="knuIaB83A8cWOpYtpz9W-20">
          <mxGeometry width="50" height="50" relative="1" as="geometry">
            <mxPoint x="680" y="200" as="sourcePoint" />
            <mxPoint x="720.983" y="151" as="targetPoint" />
          </mxGeometry>
        </mxCell>
        <mxCell id="knuIaB83A8cWOpYtpz9W-29" value="" style="endArrow=classic;html=1;rounded=0;entryX=0;entryY=0.5;entryDx=0;entryDy=0;" edge="1" parent="1" target="knuIaB83A8cWOpYtpz9W-17">
          <mxGeometry width="50" height="50" relative="1" as="geometry">
            <mxPoint x="680" y="200" as="sourcePoint" />
            <mxPoint x="730.983" y="161" as="targetPoint" />
          </mxGeometry>
        </mxCell>
      </root>
    </mxGraphModel>
  </diagram>
</mxfile>
